<svg id="Layer_1" data-name="Layer 1" xmlns="http://www.w3.org/2000/svg" viewBox="0 0 92.97 87.07"><defs><style>.cls-1{fill:#05c7f3;}</style></defs><polygon class="cls-1" points="77.56 0.01 19.99 0 39.32 19.33 54.94 19.33 47.83 12.22 72.88 12.22 80.77 20.11 80.77 61.59 67.54 74.82 45.3 74.82 36.6 66.12 36.6 59.96 45.54 51.02 65.41 51.02 77.63 38.8 40.81 38.8 24.4 55.21 24.4 70.95 40.51 87.07 72.49 87.07 92.97 66.58 92.97 15.42 77.56 0.01"/><polygon class="cls-1" points="34.21 38.81 16.19 38.81 0 55.17 17.86 55.17 34.21 38.81"/><polygon class="cls-1" points="0 70.67 16.19 87.02 34.21 87.02 17.86 70.67 0 70.67"/></svg>